<?xml version="1.0" encoding="UTF-8" standalone="no"?>
<!-- Generator: Adobe Illustrator 15.0.0, SVG Export Plug-In . SVG Version: 6.00 Build 0)  -->

<svg
   xmlns:dc="http://purl.org/dc/elements/1.1/"
   xmlns:cc="http://creativecommons.org/ns#"
   xmlns:rdf="http://www.w3.org/1999/02/22-rdf-syntax-ns#"
   xmlns:svg="http://www.w3.org/2000/svg"
   xmlns="http://www.w3.org/2000/svg"
   xmlns:sodipodi="http://sodipodi.sourceforge.net/DTD/sodipodi-0.dtd"
   xmlns:inkscape="http://www.inkscape.org/namespaces/inkscape"
   version="1.1"
   id="Layer_1"
   x="0px"
   y="0px"
   width="260.8px"
   height="74.6px"
   viewBox="0 0 260.8 74.6"
   enable-background="new 0 0 260.8 74.6"
   xml:space="preserve"
   inkscape:version="0.48.4 r9939"
   sodipodi:docname="logo_kinova_inv.svg"><metadata
     id="metadata43"><rdf:RDF><cc:Work
         rdf:about=""><dc:format>image/svg+xml</dc:format><dc:type
           rdf:resource="http://purl.org/dc/dcmitype/StillImage" /><dc:title /></cc:Work></rdf:RDF></metadata><defs
     id="defs41" /><sodipodi:namedview
     pagecolor="#ffffff"
     bordercolor="#666666"
     borderopacity="1"
     objecttolerance="10"
     gridtolerance="10"
     guidetolerance="10"
     inkscape:pageopacity="0"
     inkscape:pageshadow="2"
     inkscape:window-width="1855"
     inkscape:window-height="1056"
     id="namedview39"
     showgrid="false"
     inkscape:zoom="3.1667974"
     inkscape:cx="184.78135"
     inkscape:cy="-22.038184"
     inkscape:window-x="1985"
     inkscape:window-y="24"
     inkscape:window-maximized="1"
     inkscape:current-layer="Layer_1" /><g
     id="g3"><path
       fill="#231F20"
       d="M152.9,73.3l0.1-8.9l7.6,0.1c1.3,0,2,0.6,2,1.8l0,2.1c0,1.2-0.7,1.7-2,1.7l-1.2,0l4.1,3.4l-3,0l-3.6-3.4   l-2,0l0,3.4L152.9,73.3z M159.7,66L155,66l0,2.5l4.7,0.1c0.3,0,0.5,0,0.7-0.1c0.2-0.1,0.3-0.3,0.3-0.6l0-1.1c0-0.3-0.1-0.5-0.3-0.6   C160.2,66.1,160,66,159.7,66"
       id="path5"
       style="fill:#ffffff;fill-opacity:1;stroke:none;stroke-opacity:1;stroke-width:0;stroke-miterlimit:4;stroke-dasharray:none" /><path
       fill="#231F20"
       d="M167.8,66.7c0-0.8,0.2-1.4,0.5-1.7c0.3-0.3,0.9-0.4,1.8-0.4l6.6,0.1c0.9,0,1.4,0.2,1.7,0.5   c0.3,0.3,0.5,0.9,0.4,1.7l-0.1,4.7c0,0.8-0.2,1.4-0.5,1.7c-0.3,0.3-0.9,0.4-1.8,0.4l-6.6-0.1c-0.9,0-1.4-0.2-1.7-0.5   c-0.3-0.3-0.5-0.9-0.4-1.7L167.8,66.7z M169.8,71.9l6.8,0.1l0.1-5.7l-6.8-0.1L169.8,71.9z"
       id="path7"
       style="fill:#ffffff;fill-opacity:1;stroke:none;stroke-opacity:1;stroke-width:0;stroke-miterlimit:4;stroke-dasharray:none" /><path
       fill="#231F20"
       d="M183.9,73.7l0.1-8.9l7.6,0.1c1.3,0,2,0.6,2,1.8l0,1.1c0,0.9-0.5,1.4-1.6,1.5c1.1,0.2,1.6,0.7,1.6,1.7l0,1.1   c0,1.2-0.9,1.7-2.6,1.7L183.9,73.7z M190.8,66.3l-4.7-0.1l0,2.1l4.7,0.1c0.6,0,1-0.2,1-0.6l0-0.8C191.7,66.6,191.4,66.3,190.8,66.3    M190.7,69.9l-4.7-0.1l0,2.3l4.7,0.1c0.3,0,0.6,0,0.7-0.1c0.2-0.1,0.3-0.3,0.3-0.7l0-0.7c0-0.3-0.1-0.6-0.3-0.7   C191.3,70,191.1,69.9,190.7,69.9"
       id="path9"
       style="fill:#ffffff;fill-opacity:1;stroke:none;stroke-opacity:1;stroke-width:0;stroke-miterlimit:4;stroke-dasharray:none" /><path
       fill="#231F20"
       d="M198.6,67.1c0-0.8,0.2-1.4,0.5-1.7c0.3-0.3,0.9-0.4,1.8-0.4l6.6,0.1c0.9,0,1.4,0.2,1.7,0.5   c0.3,0.3,0.5,0.9,0.4,1.7l-0.1,4.7c0,0.8-0.2,1.4-0.5,1.7c-0.3,0.3-0.9,0.4-1.8,0.4l-6.6-0.1c-0.9,0-1.4-0.2-1.7-0.5   s-0.5-0.9-0.4-1.7L198.6,67.1z M200.6,72.2l6.8,0.1l0.1-5.7l-6.8-0.1L200.6,72.2z"
       id="path11"
       style="fill:#ffffff;fill-opacity:1;stroke:none;stroke-opacity:1;stroke-width:0;stroke-miterlimit:4;stroke-dasharray:none" /><polygon
       fill="#231F20"
       points="220,66.8 219.9,74.2 217.8,74.1 217.9,66.8 213.8,66.8 213.8,65.2 224.1,65.3 224.1,66.9  "
       id="polygon13"
       style="fill:#ffffff;fill-opacity:1;stroke:none;stroke-opacity:1;stroke-width:0;stroke-miterlimit:4;stroke-dasharray:none" /><rect
       x="224.9"
       y="68.8"
       transform="matrix(-1.237318e-002 0.9999 -0.9999 -1.237318e-002 302.0038 -158.6493)"
       fill="#231F20"
       width="8.9"
       height="2.1"
       id="rect15"
       style="fill:#ffffff;fill-opacity:1;stroke:none;stroke-opacity:1;stroke-width:0;stroke-miterlimit:4;stroke-dasharray:none" /><path
       fill="#231F20"
       d="M243.3,67.1l-5.6-0.1l-0.1,5.7l5.6,0.1l0-1.9l2.1,0.5l0,1.1c0,0.8-0.2,1.4-0.5,1.7   c-0.3,0.3-0.9,0.4-1.8,0.4l-5.3-0.1c-0.9,0-1.4-0.2-1.7-0.5c-0.3-0.3-0.5-0.9-0.4-1.7l0.1-4.7c0-0.8,0.2-1.4,0.5-1.7   c0.3-0.3,0.9-0.4,1.8-0.4l5.3,0.1c0.9,0,1.4,0.2,1.7,0.5c0.3,0.3,0.5,0.9,0.4,1.7l0,0.8l-2.1,0.3L243.3,67.1z"
       id="path17"
       style="fill:#ffffff;fill-opacity:1;stroke:none;stroke-opacity:1;stroke-width:0;stroke-miterlimit:4;stroke-dasharray:none" /><path
       fill="#231F20"
       d="M258.4,67.3l-5.9-0.1l0,1.9l5.6,0.1c0.9,0,1.4,0.2,1.8,0.5c0.3,0.3,0.5,0.9,0.5,1.7l0,1.2   c0,0.8-0.2,1.4-0.5,1.7c-0.3,0.3-0.9,0.4-1.8,0.4l-5.5-0.1c-0.9,0-1.4-0.2-1.7-0.5s-0.5-0.9-0.5-1.7l0-0.2l1.8-0.4l0,1.1l6.3,0.1   l0-2l-5.6-0.1c-0.9,0-1.4-0.2-1.7-0.5c-0.3-0.3-0.5-0.9-0.4-1.7l0-1c0-0.8,0.2-1.4,0.5-1.7c0.3-0.3,0.9-0.4,1.8-0.4l5.1,0.1   c0.8,0,1.4,0.2,1.7,0.4c0.3,0.3,0.5,0.8,0.5,1.5l0,0.2l-1.8,0.4L258.4,67.3z"
       id="path19"
       style="fill:#ffffff;fill-opacity:1;stroke:none;stroke-opacity:1;stroke-width:0;stroke-miterlimit:4;stroke-dasharray:none" /><path
       fill="#231F20"
       d="M167.1,52.7l-27.8-0.3c-3.9,0-7-3.2-6.9-7.1l0.2-17.3c0-3.9,3.2-7,7.1-6.9l27.8,0.3c3.9,0,7,3.2,6.9,7.1   l-0.2,17.3C174.1,49.6,170.9,52.7,167.1,52.7 M140.2,44.6l26.3,0.3l0.2-15.8l-26.3-0.3L140.2,44.6z"
       id="path21"
       style="fill:#ffffff;fill-opacity:1;stroke:none;stroke-opacity:1;stroke-width:0;stroke-miterlimit:4;stroke-dasharray:none" /><path
       fill="#231F20"
       d="M35.2,19.8l-0.7,0c-3.9,0-7,3.1-7.1,6.9l-0.2,17.3c0,3.9,3.1,7,6.9,7.1l0.7,0L35.2,19.8z"
       id="path23"
       style="stroke-width:0;stroke-miterlimit:4;stroke-dasharray:none;stroke:none;stroke-opacity:1;fill:#ffffff;fill-opacity:1" /><path
       fill="#231F20"
       d="M48.7,35.6l19.9,15.9l-10-0.1c-1.7,0-3.2-0.6-4.4-1.6L39.1,38c-0.7-0.7-1.1-1.6-1.1-2.6   c0-1,0.4-1.9,1.2-2.6l15.4-11.3c1.2-1,2.7-1.5,4.4-1.5l10,0.1L48.7,35.6z"
       id="path25"
       style="fill:#ffffff;fill-opacity:1;stroke:none;stroke-opacity:1;stroke-width:0;stroke-miterlimit:4;stroke-dasharray:none" /><path
       fill="#00ADEE"
       d="M72.5,11.8c0,3,2.3,5.4,5.3,5.4c3,0,5.4-2.3,5.4-5.3c0-2.9-2.3-5.4-5.3-5.4C74.9,6.5,72.5,8.9,72.5,11.8"
       id="path27" /><path
       fill="#00ADEE"
       d="M69.3,6.8C62.1,2.5,53.6,0.1,44.6,0c-1.8,0-3.5,0-5.3,0.2c-1.6,0.1-3.3,0.3-5,0.5C31,1.2,27.6,2.1,24.3,3.4   c-3.3,1.3-6.6,3-9.6,5.2c-1.5,1.1-2.9,2.2-4.3,3.5c-1.3,1.3-2.6,2.6-3.7,4.1c-1.1,1.5-2.2,3-3,4.6c-0.9,1.6-1.6,3.3-2.2,5   c-0.3,0.9-0.5,1.7-0.7,2.6c-0.2,0.9-0.4,1.7-0.5,2.7l-0.1,0.7c0,0.2-0.1,0.5-0.1,0.6c0,0.4-0.1,0.8-0.1,1.2l0,0.3l0,0.4l0,0.6   c0,0.4,0,0.9,0,1.3c0.1,3.4,0.7,6.5,1.7,9.3c1,2.8,2.2,5.2,3.5,7.2c1.3,2,2.6,3.6,3.7,4.9c0.3,0.3,0.6,0.6,0.8,0.9   c0.3,0.3,0.5,0.5,0.8,0.8c0.2,0.2,0.5,0.5,0.7,0.7c0.2,0.2,0.4,0.3,0.5,0.5c0.6,0.6,0.9,0.9,0.9,0.9c0.1,0.1,0.2,0.2,0.3,0.2   c1.9,1.5,4.6,1.2,6.1-0.7c1.5-1.9,1.2-4.6-0.7-6.1c0,0-0.3-0.3-1-0.8c-0.2-0.1-0.4-0.3-0.5-0.4c-0.2-0.1-0.3-0.3-0.5-0.4   c-0.2-0.2-0.4-0.3-0.6-0.5c-0.2-0.2-0.4-0.4-0.7-0.7c-1-0.9-2.1-2.1-3.2-3.6c-1.1-1.5-2.2-3.3-3.1-5.4c-0.9-2.1-1.6-4.5-1.9-7.1   c-0.1-0.3,0-0.7-0.1-1l0-0.5l0-0.1l0-0.1l0,0c0-0.1,0,0.1,0,0.1l0-0.3c0-0.4,0-0.8,0-1.2c0-0.2,0-0.4,0-0.5l0-0.5   c0-0.6,0.1-1.4,0.2-2.1c0.1-0.7,0.2-1.4,0.4-2.1c0.3-1.4,0.8-2.8,1.4-4.2c0.6-1.4,1.4-2.8,2.2-4.1c0.9-1.3,1.9-2.6,2.9-3.8   c1.1-1.2,2.3-2.3,3.5-3.4c2.5-2.1,5.4-3.9,8.3-5.4c3-1.4,6.1-2.5,9.2-3.2c1.7-0.4,3.5-0.7,5.2-0.9c1.5-0.1,3-0.2,4.5-0.2   c8.5,0.1,16.7,2.3,23.5,6.5c0.5,0.3,1.3,0.2,1.6-0.4C70,7.9,69.8,7.2,69.3,6.8"
       id="path29" /><path
       fill="#231F20"
       d="M121,20.8l-0.7,0L120,42.9l0,0v0L98.8,23.2c-0.1-0.1-0.2-0.2-0.3-0.3c-0.8-0.8-2.3-2.3-5.1-2.4l-0.1,0   c-3.9,0-7,3.1-7.1,6.9L86,44.7c0,3.9,3.1,7,6.9,7.1l0.7,0l0.3-22.6l22.9,21.3c1.4,1.4,3.1,1.6,3.7,1.6h0.1c3.9,0,7-3.1,7.1-6.9   l0.2-17.3C128,24.1,124.9,20.9,121,20.8"
       id="path31"
       style="fill:#ffffff;fill-opacity:1;stroke:none;stroke-opacity:1;stroke-width:0;stroke-miterlimit:4;stroke-dasharray:none" /><path
       fill="#231F20"
       d="M253.9,22.5l-12.5-0.2l-14.8-0.2l-0.3,0c-3.9,0-7,3.1-7.1,6.9l0,0.7l33.8,0.4l0,4l-27.1-0.3   c-3.9,0-7,3.1-7.1,6.9l-0.1,5.5c0,3.9,3.1,7,6.9,7.1l27.8,0.3c3.9,0,7-3.1,7.1-6.9l0.2-17.3C260.9,25.7,257.8,22.5,253.9,22.5    M252.9,46l-26.3-0.3l0-4l26.3,0.3L252.9,46z"
       id="path33"
       style="fill:#ffffff;fill-opacity:1;stroke:none;stroke-opacity:1;stroke-width:0;stroke-miterlimit:4;stroke-dasharray:none" /><path
       fill="#231F20"
       d="M74.8,20.2l-0.7,0l-0.4,31.3l7.7,0.1l0.3-24.3C81.8,23.5,78.6,20.3,74.8,20.2"
       id="path35"
       style="fill:#ffffff;fill-opacity:1;stroke:none;stroke-opacity:1;stroke-width:0;stroke-miterlimit:4;stroke-dasharray:none" /><path
       fill="#231F20"
       d="M213.4,22c-2.5,0-4.8,1.3-6,3.3l-11,19.6L185.9,25c-1.2-2-3.4-3.4-5.9-3.4l-4.7-0.1l15.2,28.7l0.1,0.2   c1.3,2.2,3.4,3.5,5.7,3.6h0c2.3,0,4.4-1.2,5.8-3.4l0.1-0.1l16-28.4L213.4,22z"
       id="path37"
       style="fill:#ffffff;fill-opacity:1;stroke:none;stroke-opacity:1;stroke-width:0;stroke-miterlimit:4;stroke-dasharray:none" /></g></svg>